<svg width="109" height="30" viewBox="0 0 109 30" fill="none" xmlns="http://www.w3.org/2000/svg">
<path d="M15.0152 0C20.5149 0 24.6298 0.827633 27.3598 2.4829C30.1096 4.13817 31.4845 6.49111 31.4845 9.54172C31.4845 10.9097 31.1977 12.223 30.624 13.4815C30.0701 14.7401 29.1502 15.8618 27.8643 16.8468C26.5982 17.8317 24.9067 18.6115 22.7899 19.186C20.6929 19.7606 18.1014 20.0479 15.0152 20.0479H11.7214V30H0V0H15.0152ZM14.7482 6.54583H11.7214V13.4405H14.036C15.0449 13.4405 15.9846 13.3242 16.8551 13.0917C17.7255 12.8454 18.4179 12.4555 18.9323 11.922C19.4664 11.3748 19.7335 10.6498 19.7335 9.74692C19.7335 8.80301 19.3279 8.03694 18.5168 7.4487C17.7057 6.84679 16.4495 6.54583 14.7482 6.54583Z" fill="black"/>
<path d="M35.36 30V0H47.0814V23.4542H63.7881V30H35.36Z" fill="black"/>
<path d="M109 30H93.6287L77.7825 8.86457H77.5155C77.6144 9.50752 77.7034 10.2804 77.7825 11.1833C77.8617 12.0862 77.9309 13.0096 77.9903 13.9535C78.0496 14.8837 78.0793 15.725 78.0793 16.4774V30H67.6932V0H83.0052L98.792 20.8482H98.9701C98.9107 20.1915 98.8514 19.4323 98.792 18.5705C98.7327 17.6949 98.6733 16.8126 98.614 15.9234C98.5744 15.0342 98.5546 14.2476 98.5546 13.5636V0H109V30Z" fill="black"/>
</svg>
